<?xml version="1.0" encoding="UTF-8" standalone="no"?>
<!DOCTYPE svg PUBLIC "-//W3C//DTD SVG 1.1//EN" "http://www.w3.org/Graphics/SVG/1.1/DTD/svg11.dtd">
<!-- Generated by graphviz version 2.40.1 (20161225.0304)
 -->
<!-- Title: Category Pages: 1 -->
<svg width="112pt" height="44pt" viewBox="0.00 0.00 112.00 44.00" xmlns="http://www.w3.org/2000/svg" xmlns:xlink="http://www.w3.org/1999/xlink">
<g id="graph0" class="graph" transform="scale(1 1) rotate(0) translate(4 40)">
<title>Category</title>
<polygon fill="#ffffff" stroke="transparent" points="-4,4 -4,-40 108,-40 108,4 -4,4"/>
<!-- a -->
<g id="node1" class="node">
<title>a</title>
<ellipse fill="none" stroke="#000000" cx="27" cy="-18" rx="27" ry="18"/>
<text text-anchor="middle" x="27" y="-13.8" font-family="Times,serif" font-size="14.00" fill="#000000">a</text>
</g>
<!-- a&#45;&gt;a -->
<g id="edge1" class="edge">
<title>a-&gt;a</title>
<path fill="none" stroke="#000000" d="M53.7949,-21.3676C63.7804,-21.478 72,-20.3555 72,-18 72,-16.5278 68.7892,-15.5373 63.9433,-15.0283"/>
<polygon fill="#000000" stroke="#000000" points="63.9237,-11.525 53.7949,-14.6324 63.6508,-18.5197 63.9237,-11.525"/>
<text text-anchor="middle" x="77.4453" y="-13.8" font-family="Times,serif" font-size="14.00" fill="#000000">id</text>
</g>
<!-- a&#45;&gt;a -->
<g id="edge2" class="edge">
<title>a-&gt;a</title>
<path fill="none" stroke="#000000" d="M52.5573,-23.9882C71.2603,-26.0078 90,-24.0117 90,-18 90,-13.0685 77.3899,-10.8392 62.534,-11.3121"/>
<polygon fill="#000000" stroke="#000000" points="62.2879,-7.8206 52.5573,-12.0118 62.7777,-14.8035 62.2879,-7.8206"/>
<text text-anchor="middle" x="92.3303" y="-13.8" font-family="Times,serif" font-size="14.00" fill="#000000">f</text>
</g>
</g>
</svg>