<?xml version="1.0" encoding="UTF-8" standalone="no"?>
<!DOCTYPE svg PUBLIC "-//W3C//DTD SVG 1.1//EN" "http://www.w3.org/Graphics/SVG/1.1/DTD/svg11.dtd">
<!-- Generated by graphviz version 2.40.1 (20161225.0304)
 -->
<!-- Title: Category Pages: 1 -->
<svg width="191pt" height="44pt" viewBox="0.00 0.00 191.00 44.00" xmlns="http://www.w3.org/2000/svg" xmlns:xlink="http://www.w3.org/1999/xlink">
<g id="graph0" class="graph" transform="scale(1 1) rotate(0) translate(4 40)">
<title>Category</title>
<polygon fill="#ffffff" stroke="transparent" points="-4,4 -4,-40 187,-40 187,4 -4,4"/>
<!-- a -->
<g id="node1" class="node">
<title>a</title>
<ellipse fill="none" stroke="#000000" cx="27" cy="-18" rx="27" ry="18"/>
<text text-anchor="middle" x="27" y="-13.8" font-family="Times,serif" font-size="14.00" fill="#000000">a</text>
</g>
<!-- a&#45;&gt;a -->
<g id="edge1" class="edge">
<title>a-&gt;a</title>
<path fill="none" stroke="#000000" d="M54.2408,-19.4985C64.0239,-19.5308 72,-19.0313 72,-18 72,-17.3716 69.0382,-16.9406 64.5105,-16.7071"/>
<polygon fill="#000000" stroke="#000000" points="64.3089,-13.2025 54.2408,-16.5015 64.1687,-20.2011 64.3089,-13.2025"/>
<text text-anchor="middle" x="77.4453" y="-13.8" font-family="Times,serif" font-size="14.00" fill="#000000">id</text>
</g>
<!-- a&#45;&gt;a -->
<g id="edge2" class="edge">
<title>a-&gt;a</title>
<path fill="none" stroke="#000000" d="M53.8696,-20.7215C72.1268,-21.5165 90,-20.6094 90,-18 90,-15.8799 78.2009,-14.8835 63.9835,-15.0108"/>
<polygon fill="#000000" stroke="#000000" points="63.7735,-11.5151 53.8696,-15.2785 63.9587,-18.5126 63.7735,-11.5151"/>
<text text-anchor="middle" x="93.1073" y="-13.8" font-family="Times,serif" font-size="14.00" fill="#000000">a</text>
</g>
<!-- a&#45;&gt;a -->
<g id="edge3" class="edge">
<title>a-&gt;a</title>
<path fill="none" stroke="#000000" d="M53.5487,-21.576C79.4938,-23.5514 108,-22.3594 108,-18 108,-14.2026 86.3694,-12.8086 63.6432,-13.8179"/>
<polygon fill="#000000" stroke="#000000" points="63.3209,-10.3309 53.5487,-14.424 63.7405,-17.3183 63.3209,-10.3309"/>
<text text-anchor="middle" x="111.5" y="-13.8" font-family="Times,serif" font-size="14.00" fill="#000000">b</text>
</g>
<!-- a&#45;&gt;a -->
<g id="edge4" class="edge">
<title>a-&gt;a</title>
<path fill="none" stroke="#000000" d="M53.3601,-22.2056C86.5184,-25.5894 126,-24.1875 126,-18 126,-12.4409 94.1309,-10.7448 63.6107,-12.9115"/>
<polygon fill="#000000" stroke="#000000" points="63.0228,-9.4491 53.3601,-13.7944 63.6236,-16.4233 63.0228,-9.4491"/>
<text text-anchor="middle" x="129.1073" y="-13.8" font-family="Times,serif" font-size="14.00" fill="#000000">c</text>
</g>
<!-- a&#45;&gt;a -->
<g id="edge5" class="edge">
<title>a-&gt;a</title>
<path fill="none" stroke="#000000" d="M53.1516,-22.6791C93.2478,-27.6261 144,-26.0664 144,-18 144,-10.5953 101.2328,-8.6736 63.2002,-12.2348"/>
<polygon fill="#000000" stroke="#000000" points="62.7176,-8.7665 53.1516,-13.3209 63.4698,-15.7259 62.7176,-8.7665"/>
<text text-anchor="middle" x="149.25" y="-13.8" font-family="Times,serif" font-size="14.00" fill="#000000">...</text>
</g>
</g>
</svg>