<?xml version="1.0" encoding="UTF-8" standalone="no"?>
<!DOCTYPE svg PUBLIC "-//W3C//DTD SVG 1.1//EN" "http://www.w3.org/Graphics/SVG/1.1/DTD/svg11.dtd">
<!-- Generated by graphviz version 2.40.1 (20161225.0304)
 -->
<!-- Title: Category Pages: 1 -->
<svg width="92pt" height="114pt" viewBox="0.00 0.00 91.96 113.60" xmlns="http://www.w3.org/2000/svg" xmlns:xlink="http://www.w3.org/1999/xlink">
<g id="graph0" class="graph" transform="scale(1 1) rotate(0) translate(4 109.6)">
<title>Category</title>
<polygon fill="#ffffff" stroke="transparent" points="-4,4 -4,-109.6 87.9594,-109.6 87.9594,4 -4,4"/>
<!-- Bool -->
<g id="node1" class="node">
<title>Bool</title>
<ellipse fill="none" stroke="#000000" cx="41.9797" cy="-52.8" rx="29.6358" ry="18"/>
<text text-anchor="middle" x="41.9797" y="-48.6" font-family="Times,serif" font-size="14.00" fill="#000000">Bool</text>
</g>
<!-- Bool&#45;&gt;Bool -->
<g id="edge1" class="edge">
<title>Bool:n-&gt;Bool:n</title>
<path fill="none" stroke="#000000" d="M41.9797,-70.8C50.9797,-76.8 50.9797,-88.8 41.9797,-88.8 36.2141,-88.8 34.1421,-83.8752 35.7636,-78.758"/>
<polygon fill="#000000" stroke="#000000" points="38.5822,-80.8353 41.9797,-70.8 33.0656,-76.5263 38.5822,-80.8353"/>
<text text-anchor="middle" x="41.9797" y="-93" font-family="Times,serif" font-size="14.00" fill="#000000">AND True (id)</text>
</g>
<!-- Bool&#45;&gt;Bool -->
<g id="edge2" class="edge">
<title>Bool:s-&gt;Bool:s</title>
<path fill="none" stroke="#000000" d="M41.9797,-34.8C50.9797,-28.8 50.9797,-16.8 41.9797,-16.8 36.2141,-16.8 34.1421,-21.7248 35.7636,-26.842"/>
<polygon fill="#000000" stroke="#000000" points="33.0656,-29.0737 41.9797,-34.8 38.5822,-24.7647 33.0656,-29.0737"/>
<text text-anchor="middle" x="41.9797" y="-4.2" font-family="Times,serif" font-size="14.00" fill="#000000">AND False</text>
</g>
</g>
</svg>