<?xml version="1.0" encoding="UTF-8" standalone="no"?>
<!DOCTYPE svg PUBLIC "-//W3C//DTD SVG 1.1//EN" "http://www.w3.org/Graphics/SVG/1.1/DTD/svg11.dtd">
<!-- Generated by graphviz version 2.40.1 (20161225.0304)
 -->
<!-- Title: Category Pages: 1 -->
<svg width="236pt" height="114pt" viewBox="0.00 0.00 236.11 113.60" xmlns="http://www.w3.org/2000/svg" xmlns:xlink="http://www.w3.org/1999/xlink">
<g id="graph0" class="graph" transform="scale(1 1) rotate(0) translate(4 109.6)">
<title>Category</title>
<polygon fill="#ffffff" stroke="transparent" points="-4,4 -4,-109.6 232.1097,-109.6 232.1097,4 -4,4"/>
<!-- Number -->
<g id="node1" class="node">
<title>Number</title>
<ellipse fill="none" stroke="#000000" cx="114.0549" cy="-52.8" rx="42.8577" ry="18"/>
<text text-anchor="middle" x="114.0549" y="-48.6" font-family="Times,serif" font-size="14.00" fill="#000000">Number</text>
</g>
<!-- Number&#45;&gt;Number -->
<g id="edge1" class="edge">
<title>Number:n-&gt;Number:n</title>
<path fill="none" stroke="#000000" d="M114.0549,-70.8C123.0549,-76.8 123.0549,-88.8 114.0549,-88.8 108.2892,-88.8 106.2172,-83.8752 107.8388,-78.758"/>
<polygon fill="#000000" stroke="#000000" points="110.6574,-80.8353 114.0549,-70.8 105.1408,-76.5263 110.6574,-80.8353"/>
<text text-anchor="middle" x="114.0549" y="-93" font-family="Times,serif" font-size="14.00" fill="#000000">(+ 0) % 3</text>
</g>
<!-- Number&#45;&gt;Number -->
<g id="edge2" class="edge">
<title>Number:s-&gt;Number:s</title>
<path fill="none" stroke="#000000" d="M114.0549,-34.8C123.0549,-28.8 123.0549,-16.8 114.0549,-16.8 108.2892,-16.8 106.2172,-21.7248 107.8388,-26.842"/>
<polygon fill="#000000" stroke="#000000" points="105.1408,-29.0737 114.0549,-34.8 110.6574,-24.7647 105.1408,-29.0737"/>
<text text-anchor="middle" x="114.0549" y="-4.2" font-family="Times,serif" font-size="14.00" fill="#000000">(+ 1) % 3</text>
</g>
<!-- Number&#45;&gt;Number -->
<g id="edge3" class="edge">
<title>Number:e-&gt;Number:e</title>
<path fill="none" stroke="#000000" d="M157.0549,-52.8C162.7333,-61.8 174.7333,-61.8 174.7333,-52.8 174.7333,-47.175 170.0458,-45.0656 165.1438,-46.4719"/>
<polygon fill="#000000" stroke="#000000" points="162.7745,-43.8817 157.0549,-52.8 167.0876,-49.395 162.7745,-43.8817"/>
<text text-anchor="middle" x="201.4215" y="-48.6" font-family="Times,serif" font-size="14.00" fill="#000000">(+ 2) % 3</text>
</g>
<!-- Number&#45;&gt;Number -->
<g id="edge4" class="edge">
<title>Number:w-&gt;Number:w</title>
<path fill="none" stroke="#000000" d="M71.0549,-52.8C65.3764,-61.8 53.3764,-61.8 53.3764,-52.8 53.3764,-47.175 58.0639,-45.0656 62.9659,-46.4719"/>
<polygon fill="#000000" stroke="#000000" points="61.0221,-49.395 71.0549,-52.8 65.3352,-43.8817 61.0221,-49.395"/>
<text text-anchor="middle" x="26.6882" y="-48.6" font-family="Times,serif" font-size="14.00" fill="#000000">(+ n) % 3</text>
</g>
</g>
</svg>