<?xml version="1.0" encoding="UTF-8" standalone="no"?>
<!DOCTYPE svg PUBLIC "-//W3C//DTD SVG 1.1//EN" "http://www.w3.org/Graphics/SVG/1.1/DTD/svg11.dtd">
<!-- Generated by graphviz version 2.40.1 (20161225.0304)
 -->
<!-- Title: Category Pages: 1 -->
<svg width="91pt" height="133pt" viewBox="0.00 0.00 90.89 132.80" xmlns="http://www.w3.org/2000/svg" xmlns:xlink="http://www.w3.org/1999/xlink">
<g id="graph0" class="graph" transform="scale(1 1) rotate(0) translate(4 128.8)">
<title>Category</title>
<polygon fill="#ffffff" stroke="transparent" points="-4,4 -4,-128.8 86.8906,-128.8 86.8906,4 -4,4"/>
<!-- t1 -->
<g id="node1" class="node">
<title>t1</title>
<ellipse fill="none" stroke="#000000" cx="27" cy="-106.8" rx="27" ry="18"/>
<text text-anchor="middle" x="27" y="-102.6" font-family="Times,serif" font-size="14.00" fill="#000000">t1</text>
</g>
<!-- t1&#45;&gt;t1 -->
<g id="edge1" class="edge">
<title>t1-&gt;t1</title>
<path fill="none" stroke="#000000" d="M51.5325,-114.9211C62.5078,-115.6945 72,-112.9875 72,-106.8 72,-102.6428 67.7151,-100.0567 61.5743,-99.0417"/>
<polygon fill="#000000" stroke="#000000" points="61.6524,-95.5424 51.5325,-98.6789 61.3995,-102.5378 61.6524,-95.5424"/>
<text text-anchor="middle" x="77.4453" y="-102.6" font-family="Times,serif" font-size="14.00" fill="#000000">id</text>
</g>
<!-- t2 -->
<g id="node2" class="node">
<title>t2</title>
<ellipse fill="none" stroke="#000000" cx="27" cy="-18" rx="27" ry="18"/>
<text text-anchor="middle" x="27" y="-13.8" font-family="Times,serif" font-size="14.00" fill="#000000">t2</text>
</g>
<!-- t1&#45;&gt;t2 -->
<g id="edge3" class="edge">
<title>t1-&gt;t2</title>
<path fill="none" stroke="#000000" d="M21.8398,-89.0056C20.4077,-83.2482 19.051,-76.8006 18.3394,-70.8 17.4601,-63.3853 17.4601,-61.4147 18.3394,-54 18.6619,-51.281 19.1168,-48.4702 19.6511,-45.6734"/>
<polygon fill="#000000" stroke="#000000" points="23.0938,-46.3147 21.8398,-35.7944 16.2596,-44.8005 23.0938,-46.3147"/>
<text text-anchor="middle" x="21.3303" y="-58.2" font-family="Times,serif" font-size="14.00" fill="#000000">f</text>
</g>
<!-- t2&#45;&gt;t1 -->
<g id="edge4" class="edge">
<title>t2-&gt;t1</title>
<path fill="none" stroke="#000000" d="M27,-36.072C27,-48.2243 27,-64.4958 27,-78.368"/>
<polygon fill="#000000" stroke="#000000" points="23.5001,-78.4005 27,-88.4006 30.5001,-78.4006 23.5001,-78.4005"/>
<text text-anchor="middle" x="30.5" y="-58.2" font-family="Times,serif" font-size="14.00" fill="#000000">g</text>
</g>
<!-- t2&#45;&gt;t2 -->
<g id="edge2" class="edge">
<title>t2-&gt;t2</title>
<path fill="none" stroke="#000000" d="M51.5325,-26.1211C62.5078,-26.8945 72,-24.1875 72,-18 72,-13.8428 67.7151,-11.2567 61.5743,-10.2417"/>
<polygon fill="#000000" stroke="#000000" points="61.6524,-6.7424 51.5325,-9.8789 61.3995,-13.7378 61.6524,-6.7424"/>
<text text-anchor="middle" x="77.4453" y="-13.8" font-family="Times,serif" font-size="14.00" fill="#000000">id</text>
</g>
</g>
</svg>