<?xml version="1.0" encoding="UTF-8" standalone="no"?>
<!DOCTYPE svg PUBLIC "-//W3C//DTD SVG 1.1//EN" "http://www.w3.org/Graphics/SVG/1.1/DTD/svg11.dtd">
<!-- Generated by graphviz version 2.40.1 (20161225.0304)
 -->
<!-- Title: Category Pages: 1 -->
<svg width="280pt" height="222pt" viewBox="0.00 0.00 280.42 221.60" xmlns="http://www.w3.org/2000/svg" xmlns:xlink="http://www.w3.org/1999/xlink">
<g id="graph0" class="graph" transform="scale(1 1) rotate(0) translate(4 217.6)">
<title>Category</title>
<polygon fill="#ffffff" stroke="transparent" points="-4,4 -4,-217.6 276.4215,-217.6 276.4215,4 -4,4"/>
<!-- Void -->
<g id="node1" class="node">
<title>Void</title>
<ellipse fill="none" stroke="#000000" cx="101.6042" cy="-195.6" rx="30.1977" ry="18"/>
<text text-anchor="middle" x="101.6042" y="-191.4" font-family="Times,serif" font-size="14.00" fill="#000000">Void</text>
</g>
<!-- Void&#45;&gt;Void -->
<g id="edge1" class="edge">
<title>Void-&gt;Void</title>
<path fill="none" stroke="#000000" d="M128.9409,-203.7775C140.3128,-204.3415 149.9526,-201.6156 149.9526,-195.6 149.9526,-191.5583 145.6011,-189.0016 139.2963,-187.93"/>
<polygon fill="#000000" stroke="#000000" points="139.1003,-184.4162 128.9409,-187.4225 138.7576,-191.4078 139.1003,-184.4162"/>
<text text-anchor="middle" x="168.6125" y="-191.4" font-family="Times,serif" font-size="14.00" fill="#000000">absurd</text>
</g>
<!-- Unit -->
<g id="node2" class="node">
<title>Unit</title>
<ellipse fill="none" stroke="#000000" cx="53.6042" cy="-106.8" rx="28.4088" ry="18"/>
<text text-anchor="middle" x="53.6042" y="-102.6" font-family="Times,serif" font-size="14.00" fill="#000000">Unit</text>
</g>
<!-- Void&#45;&gt;Unit -->
<g id="edge2" class="edge">
<title>Void-&gt;Unit</title>
<path fill="none" stroke="#000000" d="M92.1209,-178.056C85.1731,-165.2025 75.6254,-147.5393 67.7743,-133.0148"/>
<polygon fill="#000000" stroke="#000000" points="70.7386,-131.1382 62.9044,-124.0054 64.5806,-134.4668 70.7386,-131.1382"/>
<text text-anchor="middle" x="101.2641" y="-147" font-family="Times,serif" font-size="14.00" fill="#000000">absurd</text>
</g>
<!-- Bool -->
<g id="node3" class="node">
<title>Bool</title>
<ellipse fill="none" stroke="#000000" cx="73.6042" cy="-18" rx="29.6358" ry="18"/>
<text text-anchor="middle" x="73.6042" y="-13.8" font-family="Times,serif" font-size="14.00" fill="#000000">Bool</text>
</g>
<!-- Void&#45;&gt;Bool -->
<g id="edge3" class="edge">
<title>Void-&gt;Bool</title>
<path fill="none" stroke="#000000" d="M114.4114,-178.9229C118.1298,-173.1236 121.6996,-166.3688 123.6042,-159.6 131.1258,-132.8675 148.9485,-114.7597 117.6042,-54 114.1821,-47.3665 108.9422,-41.5106 103.2569,-36.5518"/>
<polygon fill="#000000" stroke="#000000" points="105.3861,-33.7737 95.3573,-30.357 101.0665,-39.282 105.3861,-33.7737"/>
<text text-anchor="middle" x="153.2641" y="-102.6" font-family="Times,serif" font-size="14.00" fill="#000000">absurd</text>
</g>
<!-- Unit&#45;&gt;Unit -->
<g id="edge6" class="edge">
<title>Unit-&gt;Unit</title>
<path fill="none" stroke="#000000" d="M78.7928,-114.9211C90.0617,-115.6945 99.8078,-112.9875 99.8078,-106.8 99.8078,-102.6428 95.4083,-100.0567 89.1033,-99.0417"/>
<polygon fill="#000000" stroke="#000000" points="88.9098,-95.5329 78.7928,-98.6789 88.6635,-102.5285 88.9098,-95.5329"/>
<text text-anchor="middle" x="105.2531" y="-102.6" font-family="Times,serif" font-size="14.00" fill="#000000">id</text>
</g>
<!-- Unit&#45;&gt;Bool -->
<g id="edge4" class="edge">
<title>Unit-&gt;Bool</title>
<path fill="none" stroke="#000000" d="M30.7685,-96.0696C13.0455,-86.1711 -6.943,-70.5422 3.1792,-54 10.5466,-41.9598 23.3527,-33.7843 36.0418,-28.3112"/>
<polygon fill="#000000" stroke="#000000" points="37.5471,-31.4826 45.6304,-24.6334 35.0402,-24.9468 37.5471,-31.4826"/>
<text text-anchor="middle" x="16.8167" y="-58.2" font-family="Times,serif" font-size="14.00" fill="#000000">false</text>
</g>
<!-- Unit&#45;&gt;Bool -->
<g id="edge5" class="edge">
<title>Unit-&gt;Bool</title>
<path fill="none" stroke="#000000" d="M50.9011,-88.4135C49.9897,-78.1233 49.8509,-65.1582 52.8384,-54 53.7621,-50.55 55.105,-47.0882 56.6704,-43.7481"/>
<polygon fill="#000000" stroke="#000000" points="59.8465,-45.2321 61.5081,-34.7684 53.6839,-41.9121 59.8465,-45.2321"/>
<text text-anchor="middle" x="64.4871" y="-58.2" font-family="Times,serif" font-size="14.00" fill="#000000">true</text>
</g>
<!-- Bool&#45;&gt;Unit -->
<g id="edge11" class="edge">
<title>Bool-&gt;Unit</title>
<path fill="none" stroke="#000000" d="M76.4482,-36.3915C77.4239,-46.6833 77.619,-59.6483 74.6042,-70.8 73.621,-74.4365 72.1692,-78.0828 70.4801,-81.5846"/>
<polygon fill="#000000" stroke="#000000" points="67.3773,-79.9632 65.6132,-90.4102 73.5071,-83.3435 67.3773,-79.9632"/>
<text text-anchor="middle" x="95.4871" y="-58.2" font-family="Times,serif" font-size="14.00" fill="#000000">ignore</text>
</g>
<!-- Bool&#45;&gt;Bool -->
<g id="edge7" class="edge">
<title>Bool-&gt;Bool</title>
<path fill="none" stroke="#000000" d="M103.49,-20.0625C113.4519,-20.0625 121.4215,-19.375 121.4215,-18 121.4215,-17.1406 118.3084,-16.5498 113.5414,-16.2275"/>
<polygon fill="#000000" stroke="#000000" points="113.5868,-12.7275 103.49,-15.9375 113.3849,-19.7246 113.5868,-12.7275"/>
<text text-anchor="middle" x="126.8668" y="-13.8" font-family="Times,serif" font-size="14.00" fill="#000000">id</text>
</g>
<!-- Bool&#45;&gt;Bool -->
<g id="edge8" class="edge">
<title>Bool-&gt;Bool</title>
<path fill="none" stroke="#000000" d="M103.045,-21.8166C121.6328,-22.7741 139.4215,-21.502 139.4215,-18 139.4215,-15.1547 127.6782,-13.7813 113.3044,-13.88"/>
<polygon fill="#000000" stroke="#000000" points="112.9371,-10.3892 103.045,-14.1834 113.1441,-17.3861 112.9371,-10.3892"/>
<text text-anchor="middle" x="159.634" y="-13.8" font-family="Times,serif" font-size="14.00" fill="#000000">inverse</text>
</g>
<!-- Bool&#45;&gt;Bool -->
<g id="edge9" class="edge">
<title>Bool-&gt;Bool</title>
<path fill="none" stroke="#000000" d="M102.5204,-22.6886C136.2585,-25.7181 179.8465,-24.1553 179.8465,-18 179.8465,-12.4458 144.3561,-10.6309 112.6367,-12.5552"/>
<polygon fill="#000000" stroke="#000000" points="112.2317,-9.0757 102.5204,-13.3114 112.7535,-16.0562 112.2317,-9.0757"/>
<text text-anchor="middle" x="190.7294" y="-13.8" font-family="Times,serif" font-size="14.00" fill="#000000">true</text>
</g>
<!-- Bool&#45;&gt;Bool -->
<g id="edge10" class="edge">
<title>Bool-&gt;Bool</title>
<path fill="none" stroke="#000000" d="M102.2762,-23.5666C143.6215,-28.4923 201.6123,-26.6367 201.6123,-18 201.6123,-10.038 152.3286,-7.8391 112.2357,-11.4031"/>
<polygon fill="#000000" stroke="#000000" points="111.863,-7.9229 102.2762,-12.4334 112.5833,-14.8857 111.863,-7.9229"/>
<text text-anchor="middle" x="214.8248" y="-13.8" font-family="Times,serif" font-size="14.00" fill="#000000">false</text>
</g>
</g>
</svg>