<?xml version="1.0" encoding="UTF-8" standalone="no"?>
<!DOCTYPE svg PUBLIC "-//W3C//DTD SVG 1.1//EN" "http://www.w3.org/Graphics/SVG/1.1/DTD/svg11.dtd">
<!-- Generated by graphviz version 2.40.1 (20161225.0304)
 -->
<!-- Title: Category Pages: 1 -->
<svg width="517pt" height="79pt" viewBox="0.00 0.00 516.73 78.80" xmlns="http://www.w3.org/2000/svg" xmlns:xlink="http://www.w3.org/1999/xlink">
<g id="graph0" class="graph" transform="scale(1 1) rotate(0) translate(4 74.8)">
<title>Category</title>
<polygon fill="#ffffff" stroke="transparent" points="-4,4 -4,-74.8 512.7275,-74.8 512.7275,4 -4,4"/>
<!-- Optional -->
<g id="node1" class="node">
<title>Optional</title>
<ellipse fill="none" stroke="#000000" cx="59.2739" cy="-18" rx="44.6626" ry="18"/>
<text text-anchor="middle" x="59.2739" y="-13.8" font-family="Times,serif" font-size="14.00" fill="#000000">Optional</text>
</g>
<!-- Optional&#45;&gt;Optional -->
<g id="edge1" class="edge">
<title>Optional:n-&gt;Optional:n</title>
<path fill="none" stroke="#000000" d="M59.2739,-36C68.2739,-42 68.2739,-54 59.2739,-54 53.5083,-54 51.4363,-49.0752 53.0578,-43.958"/>
<polygon fill="#000000" stroke="#000000" points="55.8764,-46.0353 59.2739,-36 50.3598,-41.7263 55.8764,-46.0353"/>
<text text-anchor="middle" x="59.2739" y="-58.2" font-family="Times,serif" font-size="14.00" fill="#000000">id :: a -&gt; Optonal&lt;a&gt;</text>
</g>
<!-- Optional&#45;&gt;Optional -->
<g id="edge2" class="edge">
<title>Optional:e-&gt;Optional:e</title>
<path fill="none" stroke="#000000" d="M104.2739,-18C110.1049,-27 122.1049,-27 122.1049,-18 122.1049,-12.2344 117.1801,-10.1624 112.1073,-11.7839"/>
<polygon fill="#000000" stroke="#000000" points="109.9317,-9.0423 104.2739,-18 114.2829,-14.5256 109.9317,-9.0423"/>
<text text-anchor="middle" x="315.4162" y="-13.8" font-family="Times,serif" font-size="14.00" fill="#000000">compose :: (a -&gt; Optional b) -&gt; (b -&gt; Optional c) -&gt; (a -&gt; Optional c)</text>
</g>
</g>
</svg>